<svg xmlns="http://www.w3.org/2000/svg" viewBox="0 0 384 128"><path d="M98.47,84V74.28H92c-3.81,0-5.18-.94-5.18-4.54V56.85H98.47V47.93H86.81v-7H76v7H70.32v8.92H76V71C76,80,81.12,84,89.54,84Zm17.86.72c8,0,13-3.38,14.69-9h.57V84h10.09V62.83c0-9.43-5.69-15.62-17.72-15.62-11.88,0-19.37,6.19-19.37,15.12v.21h10.88v-.29c0-4.1,2.23-5.54,7.7-5.54,5.76,0,7.85,1.3,7.85,6v1.36l-15.48,1.59c-7.71.79-11.67,4.1-11.67,9.43C103.87,81.12,108.55,84.72,116.33,84.72Zm-1.58-10.37c0-1.73,1.15-2.45,3.74-2.66L131,70.25c-.29,5.11-4.25,6.84-11.59,6.84C116.26,77.09,114.75,76.29,114.75,74.35ZM157.88,84V35.76h-10.8V84Zm24.23.72c11.45,0,19.08-5.47,19.08-13.32v-.79h-10.8v.72c0,3.09-2.23,4.75-8.64,4.75-7,0-9.58-2.38-9.86-7.92h29.37a25.9,25.9,0,0,0,.29-3.46c0-11.3-7.85-17.49-19.66-17.49s-20,7.27-20,18.79C161.88,78.82,170.09,84.72,182.11,84.72Zm-.43-29.09c6.34,0,9.22,2.09,9.5,6.84H172C172.53,57.79,175.27,55.63,181.68,55.63ZM216.35,84V65.78c0-6.12,2.45-8.85,9.29-8.85,6.63,0,9,2.44,9,8.2V84h10.8V61.53c0-8-4.68-14.32-14.54-14.32-9.43,0-13.75,5.75-14.69,11.8h-.65V47.92h-10V84Zm61.25,0V74.28h-6.48c-3.82,0-5.19-.94-5.19-4.54V56.85H277.6V47.92H265.93v-7h-10.8v7h-5.69v8.93h5.69V71c0,9.07,5.11,13,13.54,13Zm16.2,0V35.76H283V84ZM310,44.25V35.76H299.2v8.49ZM310,84V47.92H299.2V84Z"/></svg>